<svg width="24" height="24" viewBox="0 0 24 24" fill="black" xmlns="http://www.w3.org/2000/svg">
<path fill-rule="evenodd" clip-rule="evenodd" d="M3.94126 10.47C4.01553 10.3221 4.1454 10.2098 4.30239 10.1575C4.45939 10.1053 4.6307 10.1174 4.77876 10.1913L12 13.8L19.22 10.19C19.2935 10.1525 19.3736 10.1299 19.4559 10.1235C19.5381 10.1171 19.6208 10.127 19.6992 10.1527C19.7775 10.1784 19.85 10.2194 19.9125 10.2733C19.975 10.3271 20.0261 10.3928 20.0631 10.4666C20.1001 10.5403 20.122 10.6206 20.1278 10.7029C20.1336 10.7852 20.123 10.8678 20.0967 10.946C20.0704 11.0242 20.0288 11.0964 19.9745 11.1584C19.9201 11.2204 19.854 11.2711 19.78 11.3075L12.28 15.0575C12.1931 15.1011 12.0972 15.1237 12 15.1237C11.9028 15.1237 11.8069 15.1011 11.72 15.0575L4.22001 11.3075C4.07215 11.2332 3.95977 11.1034 3.90752 10.9464C3.85527 10.7894 3.8674 10.6181 3.94126 10.47Z"/>
</svg>
