<svg width="24" height="24" viewBox="0 0 24 24" fill="black" xmlns="http://www.w3.org/2000/svg">
<path d="M2 7C2 6.33696 2.26339 5.70107 2.73223 5.23223C3.20107 4.76339 3.83696 4.5 4.5 4.5H19.5C20.163 4.5 20.7989 4.76339 21.2678 5.23223C21.7366 5.70107 22 6.33696 22 7V17C22 17.663 21.7366 18.2989 21.2678 18.7678C20.7989 19.2366 20.163 19.5 19.5 19.5H4.5C3.83696 19.5 3.20107 19.2366 2.73223 18.7678C2.26339 18.2989 2 17.663 2 17V7ZM4.5 5.75C4.16848 5.75 3.85054 5.8817 3.61612 6.11612C3.3817 6.35054 3.25 6.66848 3.25 7V7.27125L12 12.5212L20.75 7.27125V7C20.75 6.66848 20.6183 6.35054 20.3839 6.11612C20.1495 5.8817 19.8315 5.75 19.5 5.75H4.5ZM20.75 8.72875L14.8025 12.2975L20.75 15.8925V8.72875ZM20.7075 17.3263L13.5887 13.025L12 13.9788L10.41 13.025L3.2925 17.325C3.364 17.5905 3.52106 17.8251 3.73936 17.9923C3.95766 18.1595 4.22501 18.2501 4.5 18.25H19.5C19.7748 18.2502 20.0421 18.1598 20.2603 17.9928C20.4786 17.8258 20.6358 17.5915 20.7075 17.3263ZM3.25 15.8925L9.1975 12.2975L3.25 8.72875V15.8925Z"/>
</svg>
