<?xml version="1.0" encoding="utf-8"?>
<svg viewBox="25.936 36.034 254.2 61.1" xmlns="http://www.w3.org/2000/svg">
  <g id="path3789_15_" transform="matrix(1, 0, 0, 1, -38.163849, -40.96558)">
    <path d="m65 117.2 10.7-13.4 17.1 13.4z" class="st0" transform="matrix(1, 0, 0, 1, 0, 0)" style="fill: rgb(63, 63, 63);"/>
    <path d="m65 117.2 10.7-13.4 17.1 13.4z" class="st0" transform="matrix(1, 0, 0, 1, 0, 0)" style="fill: rgb(63, 63, 63);"/>
  </g>
  <g id="path3791_15_" transform="matrix(1, 0, 0, 1, -38.163849, -40.96558)">
    <path d="m96.2 117.2-19.6-14.8L96.1 77z" class="st2" transform="matrix(1, 0, 0, 1, 0, 0)" style="fill: rgb(158, 25, 53);"/>
    <path d="m96.2 117.2-19.6-14.8L96.1 77z" class="st2" transform="matrix(1, 0, 0, 1, 0, 0)" style="fill: rgb(158, 25, 53);"/>
  </g>
  <g id="path3799_15_" transform="matrix(1, 0, 0, 1, -38.163849, -40.96558)">
    <path d="m64.1 119.4 29.6-.2-18.3 6.4z" class="st4" transform="matrix(1, 0, 0, 1, 0, 0)" style="fill: rgb(227, 227, 230);"/>
    <path d="m64.1 119.4 29.6-.2-18.3 6.4z" class="st4" transform="matrix(1, 0, 0, 1, 0, 0)" style="fill: rgb(227, 227, 230);"/>
  </g>
  <g id="path3805_15_" transform="matrix(1, 0, 0, 1, -38.163849, -40.96558)">
    <path d="m76.7 126.4 19.4-6.9-.1 18.6z" class="st4" transform="matrix(1, 0, 0, 1, 0, 0)" style="fill: rgb(227, 227, 230);"/>
    <path d="m76.7 126.4 19.4-6.9-.1 18.6z" class="st4" transform="matrix(1, 0, 0, 1, 0, 0)" style="fill: rgb(227, 227, 230);"/>
  </g>
  <g class="st7" transform="matrix(1, 0, 0, 1, -38.163849, -40.96558)">
    <path d="M149.6 106.7h-5.1l-6.5-8.8h-2v5.5c0 1.2.1 1.9.4 2.2.4.4.9.6 1.6.6h.8v.5h-8.3v-.5h.7c.8 0 1.4-.3 1.7-.8.2-.3.3-1 .3-2V91.2c0-1.2-.1-1.9-.4-2.2-.4-.4-.9-.6-1.6-.6h-.7v-.5h7c2 0 3.6.1 4.5.4s1.8.8 2.5 1.6 1 1.7 1 2.8c0 1.2-.4 2.2-1.2 3s-2 1.4-3.6 1.8l4 5.4c.9 1.2 1.7 2.1 2.3 2.5.7.4 1.5.7 2.6.8v.5zM135.9 97h.8c1.8 0 3.2-.4 4.2-1.2.9-.8 1.4-1.8 1.4-3s-.4-2.1-1.1-2.9c-.8-.7-1.8-1.1-3-1.1-.5 0-1.3.1-2.2.3V97z" class="st8" style="fill: rgb(28, 31, 36);"/>
  </g>
  <g class="st7" transform="matrix(1, 0, 0, 1, -38.163849, -40.96558)">
    <path d="M153.6 94.3v5.2h3c.8 0 1.3-.1 1.5-.3.3-.3.5-.8.6-1.6h.4v4.5h-.4c-.1-.6-.2-1-.3-1.2-.1-.2-.3-.4-.6-.5-.3-.1-.7-.2-1.2-.2h-3v4.3c0 .6 0 .9.1 1.1.1.1.1.2.3.3s.4.1.8.1h2.3c.8 0 1.3-.1 1.7-.2.3-.1.7-.3 1-.6.4-.4.8-1 1.3-1.8h.4l-1.2 3.3H150v-.4h.5c.3 0 .6-.1.9-.2.2-.1.4-.3.4-.5.1-.2.1-.6.1-1.3v-8.5c0-.8-.1-1.3-.3-1.5-.2-.3-.6-.4-1.2-.4h-.5v-.4h10.3l.1 2.9h-.4c-.1-.7-.3-1.2-.5-1.4-.2-.3-.4-.5-.7-.6-.3-.1-.7-.1-1.4-.1h-3.7zM173.3 103.1l.3.1-1.1 3.5h-10.4v-.4h.5c.6 0 1-.2 1.2-.5.1-.2.2-.7.2-1.4V96c0-.8-.1-1.3-.3-1.5-.3-.3-.6-.4-1.1-.4h-.5v-.4h6.1v.3c-.7 0-1.2.1-1.5.2-.3.1-.5.3-.6.5-.1.2-.2.7-.2 1.5v8.2c0 .5.1.9.2 1.1.1.1.2.2.4.3.2.1.7.1 1.5.1h1c1 0 1.8-.1 2.2-.2.4-.1.8-.4 1.1-.8.3-.4.7-1 1-1.8zM180.4 106.3v.4h-5.8v-.4h.5c.6 0 1-.2 1.2-.5.2-.2.2-.7.2-1.5v-8.4c0-.7 0-1.1-.1-1.3-.1-.2-.2-.3-.4-.4-.3-.2-.6-.2-.9-.2h-.5v-.4h5.8v.4h-.5c-.5 0-.9.2-1.2.5-.2.2-.2.7-.2 1.5v8.4c0 .7 0 1.1.1 1.3.1.2.2.3.4.4.3.2.6.2.9.2h.5zM190.1 102.3h-5.2l-.9 2.1c-.2.5-.3.9-.3 1.1 0 .2.1.4.3.5.2.2.6.2 1.3.3v.4H181v-.4c.6-.1.9-.2 1.1-.4.3-.3.7-.9 1.1-1.9l4.7-10.8h.3l4.7 10.9c.4.9.7 1.4 1 1.7.3.3.7.4 1.3.4v.4H190v-.4c.5 0 .9-.1 1.1-.3.2-.1.3-.3.3-.5 0-.3-.1-.7-.4-1.3l-.9-1.8zm-.3-.7-2.3-5.3-2.3 5.3h4.6zM195.2 93.6h3.6l8.2 9.8v-7.5c0-.8-.1-1.3-.3-1.5-.2-.3-.6-.4-1.2-.4h-.5v-.4h4.7v.4h-.5c-.6 0-1 .2-1.2.5-.1.2-.2.7-.2 1.4v11h-.4l-8.8-10.5v8c0 .8.1 1.3.3 1.5.3.3.6.4 1.2.4h.5v.4H196v-.4h.5c.6 0 1-.2 1.2-.5.1-.2.2-.7.2-1.4v-9.1l-.9-.9c-.2-.1-.5-.3-.9-.4-.2-.1-.5-.1-.9-.1v-.3zM221.9 93.6l.1 3.1h-.4c-.1-.5-.2-.9-.3-1.2-.2-.4-.5-.6-.8-.8-.3-.2-.8-.3-1.3-.3h-1.9v10c0 .8.1 1.3.3 1.5.3.3.6.4 1.2.4h.5v.4h-5.7v-.4h.5c.6 0 1-.2 1.2-.5.1-.2.2-.7.2-1.4v-10h-1.6c-.6 0-1.1 0-1.3.1-.3.1-.6.4-.9.7-.2.3-.4.8-.4 1.4h-.4l.2-3.1h10.8z" class="st8" style="fill: rgb(28, 31, 36);"/>
  </g>
  <g class="st7" transform="matrix(1, 0, 0, 1, -38.163849, -40.96558)">
    <path d="m244.7 87.5.4 6.4h-.4c-.6-1.9-1.4-3.3-2.5-4.1-1.1-.8-2.4-1.3-3.9-1.3-1.3 0-2.4.3-3.5.9s-1.8 1.6-2.4 3-.9 3.1-.9 5.2c0 1.7.3 3.2.8 4.4.6 1.2 1.4 2.2 2.5 2.9s2.4 1 3.8 1c1.3 0 2.4-.3 3.3-.8 1-.5 2-1.6 3.2-3.1l.4.3c-1 1.7-2.1 2.9-3.4 3.7-1.3.8-2.8 1.2-4.6 1.2-3.2 0-5.7-1.2-7.4-3.5-1.3-1.7-2-3.7-2-6.1 0-1.9.4-3.6 1.3-5.2s2-2.8 3.6-3.6c1.5-.9 3.2-1.3 5-1.3 1.4 0 2.8.3 4.1 1 .4.2.7.3.9.3.3 0 .5-.1.7-.3.2-.2.4-.6.5-1h.5z" class="st8" style="fill: rgb(28, 31, 36);"/>
  </g>
  <g class="st7" transform="matrix(1, 0, 0, 1, -38.163849, -40.96558)">
    <path d="M255.9 102.3h-5.2l-.9 2.1c-.2.5-.3.9-.3 1.1 0 .2.1.4.3.5.2.2.6.2 1.3.3v.4h-4.2v-.4c.6-.1.9-.2 1.1-.4.3-.3.7-.9 1.1-1.9l4.7-10.8h.3l4.7 10.9c.4.9.7 1.4 1 1.7.3.3.7.4 1.3.4v.4h-5.3v-.4c.5 0 .9-.1 1.1-.3.2-.1.3-.3.3-.5 0-.3-.1-.7-.4-1.3l-.9-1.8zm-.3-.7-2.3-5.3-2.3 5.3h4.6zM265.4 100.6v3.8c0 .8.1 1.3.3 1.5.3.3.6.4 1.1.4h.5v.4h-5.8v-.4h.5c.6 0 1-.2 1.2-.5.1-.2.2-.7.2-1.4V96c0-.8-.1-1.3-.3-1.5-.3-.3-.6-.4-1.1-.4h-.5v-.4h4.9c1.2 0 2.1.1 2.8.4.7.2 1.3.6 1.8 1.2s.7 1.2.7 2c0 1.1-.4 1.9-1.1 2.6-.7.7-1.7 1-3.1 1-.3 0-.7 0-1-.1-.2-.1-.6-.1-1.1-.2zm0-.6c.3.1.7.1.9.1h.7c.7 0 1.3-.3 1.8-.8s.7-1.2.7-2c0-.6-.1-1.1-.4-1.6-.2-.5-.6-.8-1-1.1s-.9-.4-1.5-.4c-.3 0-.8.1-1.3.2v5.6zM278.8 106.3v.4H273v-.4h.5c.6 0 1-.2 1.2-.5.2-.2.2-.7.2-1.5v-8.4c0-.7 0-1.1-.1-1.3-.1-.2-.2-.3-.4-.4-.3-.2-.6-.2-.9-.2h-.5v-.4h5.8v.4h-.5c-.5 0-.9.2-1.2.5-.2.2-.2.7-.2 1.5v8.4c0 .7 0 1.1.1 1.3.1.2.2.3.4.4.3.2.6.2.9.2h.5zM291 93.6l.1 3.1h-.4c-.1-.5-.2-.9-.3-1.2-.2-.4-.5-.6-.8-.8-.3-.2-.8-.3-1.3-.3h-1.9v10c0 .8.1 1.3.3 1.5.2.3.6.4 1.2.4h.5v.4h-5.7v-.4h.5c.6 0 1-.2 1.2-.5.1-.2.2-.7.2-1.4v-10H283c-.6 0-1.1 0-1.3.1-.3.1-.6.4-.9.7-.2.3-.4.8-.4 1.4h-.4l.2-3.1H291zM301 102.3h-5.2l-.9 2.1c-.2.5-.3.9-.3 1.1 0 .2.1.4.3.5.2.2.6.2 1.3.3v.4H292v-.4c.6-.1.9-.2 1.1-.4.3-.3.7-.9 1.1-1.9l4.7-10.8h.3l4.7 10.9c.4.9.7 1.4 1 1.7.3.3.7.4 1.3.4v.4h-5.3v-.4c.5 0 .9-.1 1.1-.3.2-.1.3-.3.3-.5 0-.3-.1-.7-.4-1.3l-.9-1.8zm-.3-.7-2.3-5.3-2.3 5.3h4.6zM318 103.1l.3.1-1.1 3.5h-10.4v-.4h.5c.6 0 1-.2 1.2-.5.1-.2.2-.7.2-1.4V96c0-.8-.1-1.3-.3-1.5-.3-.3-.6-.4-1.1-.4h-.5v-.4h6.1v.3c-.7 0-1.2.1-1.5.2-.3.1-.5.3-.6.5s-.2.7-.2 1.5v8.2c0 .5.1.9.2 1.1.1.1.2.2.4.3.2.1.7.1 1.5.1h1c1 0 1.8-.1 2.2-.2.4-.1.8-.4 1.1-.8.3-.4.6-1 1-1.8z" class="st8" style="fill: rgb(28, 31, 36);"/>
  </g>
  <g class="st7" transform="matrix(1, 0, 0, 1, -38.163849, -40.96558)">
    <path d="M158.9 117.2h-2.6l-.4 1c-.1.3-.2.4-.2.6 0 .1 0 .2.1.3.1.1.3.1.6.1v.2h-2.1v-.2c.3 0 .5-.1.5-.2.2-.2.4-.5.6-1l2.3-5.4h.2l2.3 5.5c.2.4.4.7.5.9.2.1.4.2.6.2v.2h-2.6v-.2c.3 0 .4-.1.5-.1s.1-.2.1-.3c0-.1-.1-.4-.2-.7l-.2-.9zm-.1-.3-1.1-2.7-1.2 2.7h2.3zM168.7 116.1c.5.1.8.3 1 .5.3.3.5.7.5 1.1 0 .3-.1.6-.3.9-.2.3-.5.5-.9.7-.4.1-.9.2-1.7.2h-3.1v-.2h.2c.3 0 .5-.1.6-.3.1-.1.1-.4.1-.7V114c0-.4 0-.7-.1-.8-.1-.1-.3-.2-.6-.2h-.2v-.2h2.9c.5 0 1 0 1.3.1.5.1.9.3 1.1.6.3.3.4.6.4 1 0 .3-.1.6-.3.9-.2.3-.5.5-.9.7zm-2.6-.3c.1 0 .3 0 .4.1h.5c.5 0 .8-.1 1.1-.2.2-.1.4-.3.5-.5s.2-.4.2-.7c0-.4-.2-.7-.5-1s-.8-.4-1.4-.4c-.3 0-.6 0-.9.1v2.6zm0 3.2c.4.1.8.1 1.1.1.6 0 1-.1 1.3-.4.3-.3.5-.6.5-1 0-.3-.1-.5-.2-.7s-.4-.4-.7-.6-.7-.2-1.2-.2h-.8v2.8zM172.8 113.2v2.6h1.5c.4 0 .6-.1.8-.2.2-.1.3-.4.3-.8h.2v2.3h-.2c0-.3-.1-.5-.1-.6l-.3-.3c-.1-.1-.3-.1-.6-.1h-1.5v2.7c0 .1.1.1.1.2.1 0 .2.1.4.1h1.1c.4 0 .6 0 .8-.1s.3-.2.5-.3c.2-.2.4-.5.6-.9h.2l-.6 1.7h-5v-.2h.2c.2 0 .3 0 .4-.1.1-.1.2-.1.2-.2s.1-.3.1-.6V114c0-.4 0-.7-.1-.8-.1-.1-.3-.2-.6-.2h-.2v-.2h5.1l.1 1.5h-.2c-.1-.3-.1-.6-.2-.7s-.2-.2-.4-.3c-.1 0-.4-.1-.7-.1h-1.9zM182.7 112.8l.1 1.6h-.2c0-.3-.1-.5-.1-.6-.1-.2-.2-.3-.4-.4-.2-.1-.4-.1-.7-.1h-.9v5.1c0 .4 0 .7.1.8.1.1.3.2.6.2h.2v.2h-2.8v-.2h.2c.3 0 .5-.1.6-.3.1-.1.1-.3.1-.7v-5.1h-.8c-.3 0-.5 0-.7.1-.2.1-.3.2-.4.4s-.2.4-.2.7h-.2l.1-1.6h5.4zM188.8 112.8l.1 1.6h-.2c0-.3-.1-.5-.1-.6-.1-.2-.2-.3-.4-.4-.2-.1-.4-.1-.7-.1h-.9v5.1c0 .4 0 .7.1.8.1.1.3.2.6.2h.2v.2h-2.8v-.2h.2c.3 0 .5-.1.6-.3.1-.1.1-.3.1-.7v-5.1h-.8c-.3 0-.5 0-.7.1-.2.1-.3.2-.4.4s-.2.4-.2.7h-.2l.1-1.6h5.4zM191.2 113.2v2.6h1.5c.4 0 .6-.1.8-.2.2-.1.3-.4.3-.8h.2v2.3h-.2c0-.3-.1-.5-.1-.6l-.3-.3c-.1-.1-.3-.1-.6-.1h-1.5v2.7c0 .1.1.1.1.2.1 0 .2.1.4.1h1.1c.4 0 .6 0 .8-.1s.3-.2.5-.3c.2-.2.4-.5.6-.9h.2l-.6 1.7h-5.1v-.2h.2c.2 0 .3 0 .4-.1.1-.1.2-.1.2-.2s.1-.3.1-.6V114c0-.4 0-.7-.1-.8-.1-.1-.3-.2-.6-.2h-.2v-.2h5.1l.1 1.5h-.2c-.1-.3-.1-.6-.2-.7-.1-.1-.2-.2-.4-.3-.1 0-.4-.1-.7-.1h-1.8zM201.9 119.4h-1.8l-2.2-3.1h-.7v1.9c0 .4 0 .7.1.8.1.1.3.2.6.2h.3v.2h-2.8v-.2h.2c.3 0 .5-.1.6-.3.1-.1.1-.3.1-.7V114c0-.4 0-.7-.1-.8-.1-.1-.3-.2-.6-.2h-.2v-.2h2.4c.7 0 1.2.1 1.6.2.3.1.6.3.8.6.2.3.3.6.3 1s-.1.8-.4 1.1c-.3.3-.7.5-1.2.6l1.4 1.9c.3.4.6.7.8.9s.5.2.9.3zm-4.7-3.4H197.5c.6 0 1.1-.1 1.4-.4.3-.3.5-.6.5-1s-.1-.8-.4-1c-.3-.3-.6-.4-1-.4-.2 0-.4 0-.8.1v2.7zM213.7 112.8v.2c-.2 0-.3 0-.4.1l-.3.3c-.1.1-.2.4-.3.8l-1.8 5.3h-.2l-1.5-4.2-1.5 4.2h-.2l-2-5.5c-.1-.4-.2-.7-.3-.7l-.3-.3c-.1-.1-.3-.1-.5-.1v-.2h2.5v.2h-.1c-.2 0-.3 0-.4.1s-.1.2-.1.3c0 .1.1.4.2.8l1.3 3.7 1.1-3.2-.2-.6-.2-.4c-.1-.2-.1-.3-.2-.4 0-.1-.1-.1-.2-.2s-.2-.1-.2-.1h-.3v-.2h2.6v.2h-.2c-.2 0-.3 0-.4.1s-.1.2-.1.3c0 .2.1.5.2.9l1.3 3.6 1.3-3.6c.1-.4.2-.7.2-.8 0-.1 0-.1-.1-.2 0-.1-.1-.1-.2-.1s-.3-.1-.5-.1v-.2h2zM218.4 117.2h-2.6l-.4 1c-.1.3-.2.4-.2.6 0 .1 0 .2.1.3.1.1.3.1.6.1v.2h-2.1v-.2c.3 0 .5-.1.5-.2.2-.2.4-.5.6-1l2.3-5.4h.2l2.3 5.5c.2.4.4.7.5.9.2.1.4.2.6.2v.2h-2.6v-.2c.3 0 .4-.1.5-.1.1-.1.1-.2.1-.3 0-.1-.1-.4-.2-.7l-.2-.9zm-.2-.3-1.1-2.7-1.2 2.7h2.3zM225.8 112.8h2.3v.2h-.1c-.1 0-.2 0-.4.1s-.3.2-.4.3-.3.4-.5.7l-1.6 2.5v1.7c0 .4 0 .7.1.8.1.1.3.2.6.2h.2v.2h-2.8v-.2h.2c.3 0 .5-.1.6-.3.1-.1.1-.3.1-.7v-1.6l-1.8-2.8c-.2-.3-.4-.5-.4-.6-.1-.1-.2-.2-.5-.3h-.3v-.2h2.8v.2h-.1c-.2 0-.3 0-.4.1-.1.1-.2.2-.2.3 0 .1.1.3.3.6l1.4 2.1 1.3-2c.2-.3.3-.5.3-.7 0-.1 0-.2-.1-.2 0-.1-.1-.1-.2-.2-.1 0-.2-.1-.4-.1v-.1zM234.4 112.7c.9 0 1.6.3 2.2 1 .6.7.9 1.5.9 2.4 0 1-.3 1.8-1 2.5s-1.4 1-2.3 1c-.9 0-1.7-.3-2.3-1-.6-.6-.9-1.5-.9-2.5 0-1.1.4-1.9 1.1-2.6.7-.5 1.4-.8 2.3-.8zm-.1.3c-.6 0-1.1.2-1.4.7-.4.5-.7 1.3-.7 2.4 0 1.1.2 1.9.7 2.5.4.4.8.7 1.4.7.6 0 1.1-.2 1.5-.7.4-.5.6-1.2.6-2.3 0-1.1-.2-2-.7-2.5-.3-.6-.8-.8-1.4-.8zM240 113.2v2.6h1.2c.3 0 .5-.1.6-.2.1-.1.2-.4.3-.7h.2v2.2h-.2c0-.3 0-.4-.1-.6l-.3-.3c-.1-.1-.3-.1-.5-.1H240v2.1c0 .3 0 .6.1.7 0 .1.1.2.2.2.1.1.3.1.4.1h.2v.2h-2.8v-.2h.2c.3 0 .5-.1.6-.2.1-.1.1-.4.1-.8V114c0-.3 0-.6-.1-.7 0-.1-.1-.2-.2-.2-.1-.1-.3-.1-.4-.1h-.2v-.2h4.9l.1 1.5h-.2c-.1-.3-.2-.5-.3-.7-.1-.1-.3-.2-.4-.3-.2-.1-.4-.1-.8-.1H240zM250.6 116.1c.5.1.8.3 1 .5.3.3.5.7.5 1.1 0 .3-.1.6-.3.9-.2.3-.5.5-.9.7-.4.1-.9.2-1.7.2h-3.1v-.2h.2c.3 0 .5-.1.6-.3.1-.1.1-.4.1-.7V114c0-.4 0-.7-.1-.8-.1-.1-.3-.2-.6-.2h-.2v-.2h2.9c.5 0 1 0 1.3.1.5.1.9.3 1.1.6.3.3.4.6.4 1 0 .3-.1.6-.3.9-.2.3-.5.5-.9.7zm-2.5-.3c.1 0 .3 0 .4.1h.5c.5 0 .8-.1 1.1-.2.2-.1.4-.3.5-.5s.2-.4.2-.7c0-.4-.2-.7-.5-1s-.8-.4-1.4-.4c-.3 0-.6 0-.9.1v2.6zm0 3.2c.4.1.8.1 1.1.1.6 0 1-.1 1.3-.4.3-.3.5-.6.5-1 0-.3-.1-.5-.2-.7s-.4-.4-.7-.6-.7-.2-1.2-.2h-.8v2.8zM257.5 113v-.2h2.3v.2h-.2c-.3 0-.5.1-.6.3-.1.1-.1.3-.1.7v2.7c0 .7-.1 1.2-.2 1.5-.1.4-.4.7-.8.9-.4.3-.9.4-1.6.4-.7 0-1.3-.1-1.6-.4s-.6-.6-.8-1c-.1-.3-.2-.8-.2-1.6V114c0-.4-.1-.7-.2-.8-.1-.1-.3-.2-.5-.2h-.2v-.2h2.9v.2h-.3c-.3 0-.5.1-.6.3-.1.1-.1.4-.1.7v2.9c0 .3 0 .6.1.9 0 .3.1.6.3.8l.5.5c.2.1.5.2.9.2s.8-.1 1.2-.3.6-.4.7-.7c.1-.3.2-.8.2-1.5V114c0-.4 0-.7-.1-.8-.1-.1-.3-.2-.6-.2h-.4zM264.5 112.7v2.3h-.2c-.1-.4-.2-.8-.3-1-.2-.3-.4-.5-.6-.6s-.6-.2-.9-.2c-.3 0-.6.1-.8.3-.2.2-.3.4-.3.7 0 .2.1.4.2.6.2.2.7.6 1.4 1 .6.3 1 .6 1.3.8.2.2.4.4.5.6.1.2.2.5.2.8 0 .5-.2.9-.6 1.3-.4.4-.9.5-1.5.5h-.5c-.1 0-.3-.1-.6-.2s-.5-.2-.6-.2c-.1 0-.1 0-.2.1 0 0-.1.1-.1.3h-.2v-2.3h.2c.1.5.2.8.3 1.1.1.2.4.4.7.6.3.2.6.2 1 .2s.7-.1 1-.3c.2-.2.4-.5.4-.8 0-.2 0-.3-.1-.5s-.2-.3-.4-.5c-.1-.1-.5-.3-1-.6-.6-.3-1-.6-1.2-.8-.2-.2-.4-.4-.5-.6s-.2-.5-.2-.8c0-.5.2-.9.5-1.2.4-.3.8-.5 1.4-.5.4 0 .7.1 1.1.3.2.1.3.1.4.1.1 0 .2 0 .2-.1.1-.1.1-.2.1-.3h-.1zM268.6 119.3v.2h-2.8v-.2h.2c.3 0 .5-.1.6-.2.1-.1.1-.4.1-.8V114c0-.3 0-.6-.1-.7 0-.1-.1-.2-.2-.2-.1-.1-.3-.1-.4-.1h-.2v-.2h2.8v.2h-.2c-.3 0-.5.1-.6.2-.1.1-.1.4-.1.8v4.3c0 .3 0 .6.1.7 0 .1.1.2.2.2.1.1.3.1.4.1h.2zM268.7 112.8h1.8l4 5V114c0-.4 0-.7-.1-.8-.1-.1-.3-.2-.6-.2h-.2v-.2h2.3v.2h-.2c-.3 0-.5.1-.6.3-.1.1-.1.3-.1.7v5.6h-.2l-4.4-5.3v4.1c0 .4 0 .7.1.8.1.1.3.2.6.2h.2v.2H269v-.2h.2c.3 0 .5-.1.6-.3.1-.1.1-.3.1-.7v-4.6c-.2-.2-.3-.4-.4-.4-.1-.1-.2-.1-.4-.2h-.4v-.4zM278.1 113.2v2.6h1.5c.4 0 .6-.1.8-.2.2-.1.3-.4.3-.8h.2v2.3h-.2c0-.3-.1-.5-.1-.6l-.3-.3c-.1-.1-.3-.1-.6-.1h-1.5v2.7c0 .1.1.1.1.2.1 0 .2.1.4.1h1.1c.4 0 .6 0 .8-.1s.3-.2.5-.3c.2-.2.4-.5.6-.9h.2l-.6 1.7h-5.1v-.2h.2c.2 0 .3 0 .4-.1.1-.1.2-.1.2-.2s.1-.3.1-.6V114c0-.4 0-.7-.1-.8-.1-.1-.3-.2-.6-.2h-.2v-.2h5.1l.1 1.5h-.2c-.1-.3-.1-.6-.2-.7-.1-.1-.2-.2-.4-.3-.1 0-.4-.1-.7-.1h-1.8zM286.7 112.7v2.3h-.2c-.1-.4-.2-.8-.3-1-.2-.3-.4-.5-.6-.6s-.6-.2-.9-.2c-.3 0-.6.1-.8.3-.2.2-.3.4-.3.7 0 .2.1.4.2.6.2.2.7.6 1.4 1 .6.3 1 .6 1.3.8.2.2.4.4.5.6.1.2.2.5.2.8 0 .5-.2.9-.6 1.3-.4.4-.9.5-1.5.5h-.5c-.1 0-.3-.1-.6-.2s-.5-.2-.6-.2c-.1 0-.1 0-.2.1 0 0-.1.1-.1.3h-.2v-2.3h.2c.1.5.2.8.3 1.1.1.2.4.4.7.6.3.2.6.2 1 .2s.7-.1 1-.3c.2-.2.4-.5.4-.8 0-.2 0-.3-.1-.5s-.2-.3-.4-.5c-.1-.1-.5-.3-1-.6-.6-.3-1-.6-1.2-.8-.2-.2-.4-.4-.5-.6s-.2-.5-.2-.8c0-.5.2-.9.5-1.2.4-.3.8-.5 1.4-.5.4 0 .7.1 1.1.3.2.1.3.1.4.1.1 0 .2 0 .2-.1.1-.1.1-.2.1-.3h-.1zM292.3 112.7v2.3h-.2c-.1-.4-.2-.8-.3-1-.2-.3-.4-.5-.6-.6s-.6-.2-.9-.2c-.3 0-.6.1-.8.3-.2.2-.3.4-.3.7 0 .2.1.4.2.6.2.2.7.6 1.4 1 .6.3 1 .6 1.3.8.2.2.4.4.5.6.1.2.2.5.2.8 0 .5-.2.9-.6 1.3-.4.4-.9.5-1.5.5h-.5c-.1 0-.3-.1-.6-.2s-.5-.2-.6-.2c-.1 0-.1 0-.2.1 0 0-.1.1-.1.3h-.2v-2.3h.2c.1.5.2.8.3 1.1.1.2.4.4.7.6.3.2.6.2 1 .2s.7-.1 1-.3c.2-.2.4-.5.4-.8 0-.2 0-.3-.1-.5s-.2-.3-.4-.5c-.1-.1-.5-.3-1-.6-.6-.3-1-.6-1.2-.8-.2-.2-.4-.4-.5-.6s-.2-.5-.2-.8c0-.5.2-.9.5-1.2.4-.3.8-.5 1.4-.5.4 0 .7.1 1.1.3.2.1.3.1.4.1.1 0 .2 0 .2-.1.1-.1.1-.2.1-.3h-.1z" class="st9" style="fill: rgb(156, 26, 52);"/>
  </g>
  <g id="path3789_14_" transform="matrix(1, 0, 0, 1, -38.163849, -40.96558)">
    <path d="m101.2 116.9 17.1-13.3 10.7 13.3z" class="st0" transform="matrix(1, 0, 0, 1, 0, 0)" style="fill: rgb(63, 63, 63);"/>
    <path d="m101.2 116.9 17.1-13.3 10.7 13.3z" class="st0" transform="matrix(1, 0, 0, 1, 0, 0)" style="fill: rgb(63, 63, 63);"/>
  </g>
  <g id="path3791_14_" transform="matrix(1, 0, 0, 1, -38.163849, -40.96558)">
    <path d="m97.8 77 19.5 25.4-19.6 14.8z" class="st2" transform="matrix(1, 0, 0, 1, 0, 0)" style="fill: rgb(158, 25, 53);"/>
    <path d="m97.8 77 19.5 25.4-19.6 14.8z" class="st2" transform="matrix(1, 0, 0, 1, 0, 0)" style="fill: rgb(158, 25, 53);"/>
  </g>
  <g id="path3799_14_" transform="matrix(1, 0, 0, 1, -38.163849, -40.96558)">
    <path d="m118.6 125.8-18.3-6.5 29.6.2z" class="st4" transform="matrix(1, 0, 0, 1, 0, 0)" style="fill: rgb(227, 227, 230);"/>
    <path d="m118.6 125.8-18.3-6.5 29.6.2z" class="st4" transform="matrix(1, 0, 0, 1, 0, 0)" style="fill: rgb(227, 227, 230);"/>
  </g>
  <g id="path3805_14_" transform="matrix(1, 0, 0, 1, -38.163849, -40.96558)">
    <path d="m97.9 138.1-.1-18.6 19.4 6.9z" class="st4" transform="matrix(1, 0, 0, 1, 0, 0)" style="fill: rgb(227, 227, 230);"/>
    <path d="m97.9 138.1-.1-18.6 19.4 6.9z" class="st4" transform="matrix(1, 0, 0, 1, 0, 0)" style="fill: rgb(227, 227, 230);"/>
  </g>
</svg>